<?xml version="1.0" encoding="UTF-8"?>
<svg xmlns="http://www.w3.org/2000/svg" xmlns:xlink="http://www.w3.org/1999/xlink" width="50px" height="50px" viewBox="0 0 50 50" version="1.1">
<defs>
<clipPath id="clip1">
  <path d="M 1 0 L 49 0 L 49 49 L 1 49 Z M 1 0 "/>
</clipPath>
<clipPath id="clip2">
  <path d="M 48.730469 24.289062 C 48.730469 11.183594 38.105469 0.558594 25 0.558594 C 11.894531 0.558594 1.269531 11.183594 1.269531 24.289062 C 1.269531 37.394531 11.894531 48.019531 25 48.019531 C 38.105469 48.019531 48.730469 37.394531 48.730469 24.289062 Z M 48.730469 24.289062 "/>
</clipPath>
<filter id="alpha" filterUnits="objectBoundingBox" x="0%" y="0%" width="100%" height="100%">
  <feColorMatrix type="matrix" in="SourceGraphic" values="0 0 0 0 1 0 0 0 0 1 0 0 0 0 1 0 0 0 1 0"/>
</filter>
<mask id="mask0">
  <g filter="url(#alpha)">
<rect x="0" y="0" width="50" height="50" style="fill:rgb(0%,0%,0%);fill-opacity:0.501961;stroke:none;"/>
  </g>
</mask>
<clipPath id="clip3">
  <rect x="0" y="0" width="50" height="50"/>
</clipPath>
<g id="surface5" clip-path="url(#clip3)">
<path style=" stroke:none;fill-rule:nonzero;fill:rgb(76.862746%,94.117647%,100%);fill-opacity:1;" d="M 25.785156 30.425781 C 26.210938 30.5625 26.625 30.742188 26.988281 31.007812 C 27.695312 31.53125 28.152344 32.316406 28.398438 33.167969 C 28.46875 33.40625 28.722656 33.210938 28.875 33.164062 C 29.15625 33.082031 29.449219 33.042969 29.742188 33.0625 C 30.191406 33.089844 30.640625 33.203125 31.042969 33.417969 C 31.800781 33.820312 32.308594 34.566406 32.511719 35.414062 C 32.554688 35.585938 32.539062 35.804688 32.753906 35.808594 C 32.980469 35.816406 33.207031 35.867188 33.410156 35.96875 C 33.796875 36.160156 34.308594 36.699219 34.292969 37.179688 C 34.265625 37.992188 34.046875 38.792969 33.203125 39.070312 C 32.742188 39.222656 32.15625 39.125 31.679688 39.125 C 29.289062 39.125 26.898438 39.125 24.507812 39.125 C 23.441406 39.125 22.375 39.125 21.308594 39.121094 C 20.710938 39.121094 20.160156 39.1875 19.605469 38.929688 C 17.78125 38.074219 17.503906 35.289062 19.132812 34.078125 C 19.570312 33.75 20.101562 33.589844 20.640625 33.5625 C 20.972656 33.546875 21.070312 33.566406 21.15625 33.214844 C 21.238281 32.894531 21.351562 32.578125 21.5 32.285156 C 21.75 31.796875 22.101562 31.375 22.53125 31.046875 C 22.753906 30.882812 22.992188 30.742188 23.242188 30.625 C 23.375 30.5625 23.511719 30.519531 23.644531 30.460938 C 23.949219 30.328125 25.136719 30.21875 25.785156 30.425781 Z M 25.785156 30.425781 "/>
</g>
<mask id="mask1">
  <g filter="url(#alpha)">
<rect x="0" y="0" width="50" height="50" style="fill:rgb(0%,0%,0%);fill-opacity:0.501961;stroke:none;"/>
  </g>
</mask>
<clipPath id="clip4">
  <rect x="0" y="0" width="50" height="50"/>
</clipPath>
<g id="surface8" clip-path="url(#clip4)">
<path style=" stroke:none;fill-rule:nonzero;fill:rgb(76.862746%,94.117647%,100%);fill-opacity:1;" d="M 7.414062 9.46875 C 7.839844 9.605469 8.253906 9.785156 8.617188 10.054688 C 9.324219 10.574219 9.78125 11.359375 10.027344 12.210938 C 10.09375 12.449219 10.347656 12.253906 10.503906 12.207031 C 10.785156 12.125 11.078125 12.085938 11.371094 12.105469 C 11.820312 12.132812 12.269531 12.246094 12.671875 12.460938 C 13.429688 12.867188 13.9375 13.609375 14.140625 14.457031 C 14.183594 14.628906 14.164062 14.847656 14.382812 14.855469 C 14.609375 14.859375 14.835938 14.910156 15.039062 15.011719 C 15.425781 15.203125 15.9375 15.742188 15.921875 16.222656 C 15.894531 17.039062 15.675781 17.835938 14.832031 18.113281 C 14.371094 18.265625 13.785156 18.167969 13.308594 18.167969 C 10.917969 18.167969 8.527344 18.171875 6.136719 18.167969 C 5.070312 18.167969 4.003906 18.167969 2.9375 18.167969 C 2.339844 18.164062 1.789062 18.230469 1.230469 17.972656 C -0.589844 17.121094 -0.867188 14.332031 0.757812 13.121094 C 1.199219 12.792969 1.730469 12.632812 2.269531 12.609375 C 2.601562 12.59375 2.695312 12.609375 2.785156 12.257812 C 2.867188 11.9375 2.980469 11.625 3.128906 11.328125 C 3.378906 10.839844 3.730469 10.417969 4.160156 10.09375 C 4.378906 9.925781 4.621094 9.785156 4.871094 9.667969 C 5.003906 9.609375 5.140625 9.5625 5.273438 9.503906 C 5.578125 9.375 6.765625 9.261719 7.414062 9.46875 Z M 7.414062 9.46875 "/>
</g>
<mask id="mask2">
  <g filter="url(#alpha)">
<rect x="0" y="0" width="50" height="50" style="fill:rgb(0%,0%,0%);fill-opacity:0.101961;stroke:none;"/>
  </g>
</mask>
<clipPath id="clip5">
  <rect x="0" y="0" width="50" height="50"/>
</clipPath>
<g id="surface11" clip-path="url(#clip5)">
<path style=" stroke:none;fill-rule:nonzero;fill:rgb(100%,92.54902%,37.254903%);fill-opacity:1;" d="M 30.878906 12.917969 L -2.566406 32.328125 L -1.140625 35.097656 Z M 30.878906 12.917969 "/>
</g>
<mask id="mask3">
  <g filter="url(#alpha)">
<rect x="0" y="0" width="50" height="50" style="fill:rgb(0%,0%,0%);fill-opacity:0.101961;stroke:none;"/>
  </g>
</mask>
<clipPath id="clip6">
  <rect x="0" y="0" width="50" height="50"/>
</clipPath>
<g id="surface14" clip-path="url(#clip6)">
<path style=" stroke:none;fill-rule:nonzero;fill:rgb(100%,92.54902%,37.254903%);fill-opacity:1;" d="M 30.878906 12.917969 L 0.675781 37.066406 L 2.496094 39.59375 Z M 30.878906 12.917969 "/>
</g>
<mask id="mask4">
  <g filter="url(#alpha)">
<rect x="0" y="0" width="50" height="50" style="fill:rgb(0%,0%,0%);fill-opacity:0.101961;stroke:none;"/>
  </g>
</mask>
<clipPath id="clip7">
  <rect x="0" y="0" width="50" height="50"/>
</clipPath>
<g id="surface17" clip-path="url(#clip7)">
<path style=" stroke:none;fill-rule:nonzero;fill:rgb(100%,92.54902%,37.254903%);fill-opacity:1;" d="M 30.878906 12.917969 L 4.375 41.078125 L 6.53125 43.324219 Z M 30.878906 12.917969 "/>
</g>
<mask id="mask5">
  <g filter="url(#alpha)">
<rect x="0" y="0" width="50" height="50" style="fill:rgb(0%,0%,0%);fill-opacity:0.101961;stroke:none;"/>
  </g>
</mask>
<clipPath id="clip8">
  <rect x="0" y="0" width="50" height="50"/>
</clipPath>
<g id="surface20" clip-path="url(#clip8)">
<path style=" stroke:none;fill-rule:nonzero;fill:rgb(100%,92.54902%,37.254903%);fill-opacity:1;" d="M 30.878906 12.917969 L 8.632812 44.550781 L 11.089844 46.46875 Z M 30.878906 12.917969 "/>
</g>
<mask id="mask6">
  <g filter="url(#alpha)">
<rect x="0" y="0" width="50" height="50" style="fill:rgb(0%,0%,0%);fill-opacity:0.101961;stroke:none;"/>
  </g>
</mask>
<clipPath id="clip9">
  <rect x="0" y="0" width="50" height="50"/>
</clipPath>
<g id="surface23" clip-path="url(#clip9)">
<path style=" stroke:none;fill-rule:nonzero;fill:rgb(100%,92.54902%,37.254903%);fill-opacity:1;" d="M 30.878906 12.917969 L 14.707031 48.046875 L 17.46875 49.488281 Z M 30.878906 12.917969 "/>
</g>
<mask id="mask7">
  <g filter="url(#alpha)">
<rect x="0" y="0" width="50" height="50" style="fill:rgb(0%,0%,0%);fill-opacity:0.101961;stroke:none;"/>
  </g>
</mask>
<clipPath id="clip10">
  <rect x="0" y="0" width="50" height="50"/>
</clipPath>
<g id="surface26" clip-path="url(#clip10)">
<path style=" stroke:none;fill-rule:nonzero;fill:rgb(100%,92.54902%,37.254903%);fill-opacity:1;" d="M 30.878906 12.917969 L 20.871094 50.273438 L 23.835938 51.226562 Z M 30.878906 12.917969 "/>
</g>
<mask id="mask8">
  <g filter="url(#alpha)">
<rect x="0" y="0" width="50" height="50" style="fill:rgb(0%,0%,0%);fill-opacity:0.101961;stroke:none;"/>
  </g>
</mask>
<clipPath id="clip11">
  <rect x="0" y="0" width="50" height="50"/>
</clipPath>
<g id="surface29" clip-path="url(#clip11)">
<path style=" stroke:none;fill-rule:nonzero;fill:rgb(100%,92.54902%,37.254903%);fill-opacity:1;" d="M 30.878906 12.917969 L 27.667969 51.457031 L 30.753906 51.871094 Z M 30.878906 12.917969 "/>
</g>
<mask id="mask9">
  <g filter="url(#alpha)">
<rect x="0" y="0" width="50" height="50" style="fill:rgb(0%,0%,0%);fill-opacity:0.101961;stroke:none;"/>
  </g>
</mask>
<clipPath id="clip12">
  <rect x="0" y="0" width="50" height="50"/>
</clipPath>
<g id="surface32" clip-path="url(#clip12)">
<path style=" stroke:none;fill-rule:nonzero;fill:rgb(100%,92.54902%,37.254903%);fill-opacity:1;" d="M 30.878906 12.917969 L 35.265625 51.339844 L 38.371094 51.144531 Z M 30.878906 12.917969 "/>
</g>
<mask id="mask10">
  <g filter="url(#alpha)">
<rect x="0" y="0" width="50" height="50" style="fill:rgb(0%,0%,0%);fill-opacity:0.101961;stroke:none;"/>
  </g>
</mask>
<clipPath id="clip13">
  <rect x="0" y="0" width="50" height="50"/>
</clipPath>
<g id="surface35" clip-path="url(#clip13)">
<path style=" stroke:none;fill-rule:nonzero;fill:rgb(100%,92.54902%,37.254903%);fill-opacity:1;" d="M 30.878906 12.917969 L 44.027344 49.285156 L 47.003906 48.375 Z M 30.878906 12.917969 "/>
</g>
<mask id="mask11">
  <g filter="url(#alpha)">
<rect x="0" y="0" width="50" height="50" style="fill:rgb(0%,0%,0%);fill-opacity:0.101961;stroke:none;"/>
  </g>
</mask>
<clipPath id="clip14">
  <rect x="0" y="0" width="50" height="50"/>
</clipPath>
<g id="surface38" clip-path="url(#clip14)">
<path style=" stroke:none;fill-rule:nonzero;fill:rgb(100%,92.54902%,37.254903%);fill-opacity:1;" d="M 30.878906 12.917969 L 51.890625 45.386719 L 54.585938 43.828125 Z M 30.878906 12.917969 "/>
</g>
<mask id="mask12">
  <g filter="url(#alpha)">
<rect x="0" y="0" width="50" height="50" style="fill:rgb(0%,0%,0%);fill-opacity:0.101961;stroke:none;"/>
  </g>
</mask>
<clipPath id="clip15">
  <rect x="0" y="0" width="50" height="50"/>
</clipPath>
<g id="surface41" clip-path="url(#clip15)">
<path style=" stroke:none;fill-rule:nonzero;fill:rgb(100%,92.54902%,37.254903%);fill-opacity:1;" d="M 30.878906 12.917969 L 58.921875 39.550781 L 61.175781 37.402344 Z M 30.878906 12.917969 "/>
</g>
<mask id="mask13">
  <g filter="url(#alpha)">
<rect x="0" y="0" width="50" height="50" style="fill:rgb(0%,0%,0%);fill-opacity:0.101961;stroke:none;"/>
  </g>
</mask>
<clipPath id="clip16">
  <rect x="0" y="0" width="50" height="50"/>
</clipPath>
<g id="surface44" clip-path="url(#clip16)">
<path style=" stroke:none;fill-rule:nonzero;fill:rgb(100%,92.54902%,37.254903%);fill-opacity:1;" d="M 30.878906 12.917969 L -6.117188 24.175781 L -5.363281 27.195312 Z M 30.878906 12.917969 "/>
</g>
<mask id="mask14">
  <g filter="url(#alpha)">
<rect x="0" y="0" width="50" height="50" style="fill:rgb(0%,0%,0%);fill-opacity:0.101961;stroke:none;"/>
  </g>
</mask>
<clipPath id="clip17">
  <rect x="0" y="0" width="50" height="50"/>
</clipPath>
<g id="surface47" clip-path="url(#clip17)">
<path style=" stroke:none;fill-rule:nonzero;fill:rgb(100%,92.54902%,37.254903%);fill-opacity:1;" d="M 30.878906 12.917969 L -7.765625 14.332031 L -7.808594 17.445312 Z M 30.878906 12.917969 "/>
</g>
<mask id="mask15">
  <g filter="url(#alpha)">
<rect x="0" y="0" width="50" height="50" style="fill:rgb(0%,0%,0%);fill-opacity:0.101961;stroke:none;"/>
  </g>
</mask>
<clipPath id="clip18">
  <rect x="0" y="0" width="50" height="50"/>
</clipPath>
<g id="surface50" clip-path="url(#clip18)">
<path style=" stroke:none;fill-rule:nonzero;fill:rgb(100%,92.54902%,37.254903%);fill-opacity:1;" d="M 30.878906 12.917969 L -6.863281 4.492188 L -7.691406 7.496094 Z M 30.878906 12.917969 "/>
</g>
<mask id="mask16">
  <g filter="url(#alpha)">
<rect x="0" y="0" width="50" height="50" style="fill:rgb(0%,0%,0%);fill-opacity:0.101961;stroke:none;"/>
  </g>
</mask>
<clipPath id="clip19">
  <rect x="0" y="0" width="50" height="50"/>
</clipPath>
<g id="surface53" clip-path="url(#clip19)">
<path style=" stroke:none;fill-rule:nonzero;fill:rgb(100%,92.54902%,37.254903%);fill-opacity:1;" d="M 30.878906 12.917969 L -4.078125 -3.617188 L -5.550781 -0.871094 Z M 30.878906 12.917969 "/>
</g>
<mask id="mask17">
  <g filter="url(#alpha)">
<rect x="0" y="0" width="50" height="50" style="fill:rgb(0%,0%,0%);fill-opacity:0.101961;stroke:none;"/>
  </g>
</mask>
<clipPath id="clip20">
  <rect x="0" y="0" width="50" height="50"/>
</clipPath>
<g id="surface56" clip-path="url(#clip20)">
<path style=" stroke:none;fill-rule:nonzero;fill:rgb(100%,92.54902%,37.254903%);fill-opacity:1;" d="M 30.878906 12.917969 L 2.503906 -13.355469 L 0.277344 -11.179688 Z M 30.878906 12.917969 "/>
</g>
<mask id="mask18">
  <g filter="url(#alpha)">
<rect x="0" y="0" width="50" height="50" style="fill:rgb(0%,0%,0%);fill-opacity:0.101961;stroke:none;"/>
  </g>
</mask>
<clipPath id="clip21">
  <rect x="0" y="0" width="50" height="50"/>
</clipPath>
<g id="surface59" clip-path="url(#clip21)">
<path style=" stroke:none;fill-rule:nonzero;fill:rgb(100%,92.54902%,37.254903%);fill-opacity:1;" d="M 30.878906 12.917969 L 14.816406 -22.257812 L 11.921875 -21.109375 Z M 30.878906 12.917969 "/>
</g>
<clipPath id="clip22">
  <path d="M 28 18 L 34 18 L 34 25 L 28 25 Z M 28 18 "/>
</clipPath>
<clipPath id="clip23">
  <path d="M 48.730469 24.289062 C 48.730469 11.183594 38.105469 0.558594 25 0.558594 C 11.894531 0.558594 1.269531 11.183594 1.269531 24.289062 C 1.269531 37.394531 11.894531 48.019531 25 48.019531 C 38.105469 48.019531 48.730469 37.394531 48.730469 24.289062 Z M 48.730469 24.289062 "/>
</clipPath>
<clipPath id="clip24">
  <path d="M 33 15 L 40 15 L 40 22 L 33 22 Z M 33 15 "/>
</clipPath>
<clipPath id="clip25">
  <path d="M 48.730469 24.289062 C 48.730469 11.183594 38.105469 0.558594 25 0.558594 C 11.894531 0.558594 1.269531 11.183594 1.269531 24.289062 C 1.269531 37.394531 11.894531 48.019531 25 48.019531 C 38.105469 48.019531 48.730469 37.394531 48.730469 24.289062 Z M 48.730469 24.289062 "/>
</clipPath>
<clipPath id="clip26">
  <path d="M 23 5 L 39 5 L 39 21 L 23 21 Z M 23 5 "/>
</clipPath>
<clipPath id="clip27">
  <path d="M 48.730469 24.289062 C 48.730469 11.183594 38.105469 0.558594 25 0.558594 C 11.894531 0.558594 1.269531 11.183594 1.269531 24.289062 C 1.269531 37.394531 11.894531 48.019531 25 48.019531 C 38.105469 48.019531 48.730469 37.394531 48.730469 24.289062 Z M 48.730469 24.289062 "/>
</clipPath>
<clipPath id="clip28">
  <path d="M 24 6 L 38 6 L 38 20 L 24 20 Z M 24 6 "/>
</clipPath>
<clipPath id="clip29">
  <path d="M 48.730469 24.289062 C 48.730469 11.183594 38.105469 0.558594 25 0.558594 C 11.894531 0.558594 1.269531 11.183594 1.269531 24.289062 C 1.269531 37.394531 11.894531 48.019531 25 48.019531 C 38.105469 48.019531 48.730469 37.394531 48.730469 24.289062 Z M 48.730469 24.289062 "/>
</clipPath>
<clipPath id="clip30">
  <path d="M 26 8 L 36 8 L 36 18 L 26 18 Z M 26 8 "/>
</clipPath>
<clipPath id="clip31">
  <path d="M 48.730469 24.289062 C 48.730469 11.183594 38.105469 0.558594 25 0.558594 C 11.894531 0.558594 1.269531 11.183594 1.269531 24.289062 C 1.269531 37.394531 11.894531 48.019531 25 48.019531 C 38.105469 48.019531 48.730469 37.394531 48.730469 24.289062 Z M 48.730469 24.289062 "/>
</clipPath>
<clipPath id="clip32">
  <path d="M 25 10 L 49 10 L 49 25 L 25 25 Z M 25 10 "/>
</clipPath>
<clipPath id="clip33">
  <path d="M 48.730469 24.289062 C 48.730469 11.183594 38.105469 0.558594 25 0.558594 C 11.894531 0.558594 1.269531 11.183594 1.269531 24.289062 C 1.269531 37.394531 11.894531 48.019531 25 48.019531 C 38.105469 48.019531 48.730469 37.394531 48.730469 24.289062 Z M 48.730469 24.289062 "/>
</clipPath>
<mask id="mask19">
  <g filter="url(#alpha)">
<rect x="0" y="0" width="50" height="50" style="fill:rgb(0%,0%,0%);fill-opacity:0.2;stroke:none;"/>
  </g>
</mask>
<clipPath id="clip34">
  <rect x="0" y="0" width="50" height="50"/>
</clipPath>
<g id="surface62" clip-path="url(#clip34)">
<path style=" stroke:none;fill-rule:nonzero;fill:rgb(0%,0%,0%);fill-opacity:1;" d="M 14.554688 49.609375 C 14.152344 49.683594 13.738281 49.722656 13.316406 49.722656 C 9.601562 49.722656 6.59375 46.714844 6.59375 43 C 6.59375 40.617188 7.835938 38.523438 9.707031 37.332031 L 9.707031 17.707031 C 9.707031 16.984375 10.476562 16.398438 11.425781 16.398438 L 13.910156 16.398438 C 12.960938 16.398438 12.191406 16.984375 12.191406 17.707031 L 12.191406 37.332031 C 10.320312 38.523438 9.078125 40.617188 9.078125 43 C 9.078125 46.289062 11.4375 49.027344 14.554688 49.609375 Z M 14.554688 49.609375 "/>
</g>
<mask id="mask20">
  <g filter="url(#alpha)">
<rect x="0" y="0" width="50" height="50" style="fill:rgb(0%,0%,0%);fill-opacity:0.4;stroke:none;"/>
  </g>
</mask>
<clipPath id="clip35">
  <rect x="0" y="0" width="50" height="50"/>
</clipPath>
<g id="surface65" clip-path="url(#clip35)">
<path style=" stroke:none;fill-rule:nonzero;fill:rgb(100%,100%,100%);fill-opacity:1;" d="M 18.933594 43 C 18.933594 46.714844 15.921875 49.722656 12.210938 49.722656 C 11.976562 49.722656 11.746094 49.710938 11.519531 49.6875 C 14.910156 49.34375 17.550781 46.480469 17.550781 43 C 17.550781 40.617188 16.308594 38.523438 14.4375 37.332031 L 14.4375 17.707031 C 14.4375 16.984375 13.667969 16.398438 12.71875 16.398438 L 14.101562 16.398438 C 15.046875 16.398438 15.816406 16.984375 15.816406 17.707031 L 15.816406 37.332031 C 17.691406 38.523438 18.933594 40.617188 18.933594 43 Z M 18.933594 43 "/>
</g>
</defs>
<g id="surface1">
<path style=" stroke:none;fill-rule:nonzero;fill:rgb(14.901961%,65.098041%,81.960785%);fill-opacity:1;" d="M 48.730469 24.289062 C 48.730469 11.183594 38.105469 0.558594 25 0.558594 C 11.894531 0.558594 1.269531 11.183594 1.269531 24.289062 C 1.269531 37.394531 11.894531 48.019531 25 48.019531 C 38.105469 48.019531 48.730469 37.394531 48.730469 24.289062 Z M 48.730469 24.289062 "/>
<g clip-path="url(#clip1)" clip-rule="nonzero">
<g clip-path="url(#clip2)" clip-rule="nonzero">
<use xlink:href="#surface5" mask="url(#mask0)"/>
<use xlink:href="#surface8" mask="url(#mask1)"/>
<use xlink:href="#surface11" mask="url(#mask2)"/>
<use xlink:href="#surface14" mask="url(#mask3)"/>
<use xlink:href="#surface17" mask="url(#mask4)"/>
<use xlink:href="#surface20" mask="url(#mask5)"/>
<use xlink:href="#surface23" mask="url(#mask6)"/>
<use xlink:href="#surface26" mask="url(#mask7)"/>
<use xlink:href="#surface29" mask="url(#mask8)"/>
<use xlink:href="#surface32" mask="url(#mask9)"/>
<use xlink:href="#surface35" mask="url(#mask10)"/>
<use xlink:href="#surface38" mask="url(#mask11)"/>
<use xlink:href="#surface41" mask="url(#mask12)"/>
<use xlink:href="#surface44" mask="url(#mask13)"/>
<use xlink:href="#surface47" mask="url(#mask14)"/>
<use xlink:href="#surface50" mask="url(#mask15)"/>
<use xlink:href="#surface53" mask="url(#mask16)"/>
<use xlink:href="#surface56" mask="url(#mask17)"/>
<use xlink:href="#surface59" mask="url(#mask18)"/>
</g>
</g>
<g clip-path="url(#clip22)" clip-rule="nonzero">
<g clip-path="url(#clip23)" clip-rule="nonzero">
<path style=" stroke:none;fill-rule:nonzero;fill:rgb(100%,92.54902%,37.254903%);fill-opacity:1;" d="M 28.230469 18.941406 L 30.878906 24.515625 L 33.53125 18.941406 Z M 28.230469 18.941406 "/>
</g>
</g>
<g clip-path="url(#clip24)" clip-rule="nonzero">
<g clip-path="url(#clip25)" clip-rule="nonzero">
<path style=" stroke:none;fill-rule:nonzero;fill:rgb(100%,92.54902%,37.254903%);fill-opacity:1;" d="M 37.042969 15.292969 L 39.109375 21.109375 L 33.292969 19.039062 Z M 37.042969 15.292969 "/>
</g>
</g>
<g clip-path="url(#clip26)" clip-rule="nonzero">
<g clip-path="url(#clip27)" clip-rule="nonzero">
<path style=" stroke:none;fill-rule:nonzero;fill:rgb(100%,92.54902%,37.254903%);fill-opacity:1;" d="M 38.21875 12.917969 C 38.21875 8.863281 34.933594 5.578125 30.878906 5.578125 C 26.828125 5.578125 23.539062 8.863281 23.539062 12.917969 C 23.539062 16.972656 26.828125 20.257812 30.878906 20.257812 C 34.933594 20.257812 38.21875 16.972656 38.21875 12.917969 Z M 38.21875 12.917969 "/>
<path style=" stroke:none;fill-rule:nonzero;fill:rgb(100%,92.54902%,42.745098%);fill-opacity:1;" d="M 38.21875 12.917969 C 38.21875 8.863281 34.933594 5.578125 30.878906 5.578125 C 26.828125 5.578125 23.539062 8.863281 23.539062 12.917969 C 23.539062 16.972656 26.828125 20.257812 30.878906 20.257812 C 34.933594 20.257812 38.21875 16.972656 38.21875 12.917969 Z M 38.21875 12.917969 "/>
</g>
</g>
<g clip-path="url(#clip28)" clip-rule="nonzero">
<g clip-path="url(#clip29)" clip-rule="nonzero">
<path style=" stroke:none;fill-rule:nonzero;fill:rgb(100%,92.54902%,37.254903%);fill-opacity:1;" d="M 37.0625 12.917969 C 37.0625 9.503906 34.292969 6.738281 30.878906 6.738281 C 27.464844 6.738281 24.699219 9.503906 24.699219 12.917969 C 24.699219 16.332031 27.464844 19.097656 30.878906 19.097656 C 34.292969 19.097656 37.0625 16.332031 37.0625 12.917969 Z M 37.0625 12.917969 "/>
</g>
</g>
<g clip-path="url(#clip30)" clip-rule="nonzero">
<g clip-path="url(#clip31)" clip-rule="nonzero">
<path style=" stroke:none;fill-rule:nonzero;fill:rgb(100%,92.54902%,37.254903%);fill-opacity:1;" d="M 35.085938 12.917969 C 35.085938 10.597656 33.203125 8.714844 30.878906 8.714844 C 28.558594 8.714844 26.675781 10.597656 26.675781 12.917969 C 26.675781 15.242188 28.558594 17.121094 30.878906 17.121094 C 33.203125 17.121094 35.085938 15.242188 35.085938 12.917969 Z M 35.085938 12.917969 "/>
</g>
</g>
<g clip-path="url(#clip32)" clip-rule="nonzero">
<g clip-path="url(#clip33)" clip-rule="nonzero">
<path style=" stroke:none;fill-rule:nonzero;fill:rgb(76.862746%,94.117647%,100%);fill-opacity:1;" d="M 39.582031 10.914062 C 38.886719 11.132812 38.207031 11.421875 37.613281 11.855469 C 36.457031 12.695312 35.710938 13.953125 35.308594 15.324219 C 35.195312 15.707031 34.78125 15.390625 34.53125 15.316406 C 34.070312 15.179688 33.589844 15.121094 33.113281 15.152344 C 32.375 15.195312 31.644531 15.378906 30.988281 15.722656 C 29.75 16.375 28.917969 17.566406 28.582031 18.929688 C 28.515625 19.207031 28.542969 19.558594 28.1875 19.570312 C 27.816406 19.578125 27.449219 19.65625 27.113281 19.820312 C 26.484375 20.132812 25.644531 21 25.671875 21.765625 C 25.714844 23.078125 26.074219 24.363281 27.453125 24.808594 C 28.210938 25.050781 29.167969 24.894531 29.945312 24.894531 C 33.851562 24.894531 37.761719 24.898438 41.667969 24.894531 C 43.410156 24.894531 45.15625 24.894531 46.898438 24.890625 C 47.875 24.886719 48.78125 24.996094 49.6875 24.578125 C 52.664062 23.207031 53.121094 18.730469 50.460938 16.78125 C 49.742188 16.257812 48.871094 16 47.996094 15.957031 C 47.449219 15.933594 47.292969 15.960938 47.148438 15.398438 C 47.015625 14.878906 46.832031 14.378906 46.585938 13.90625 C 46.179688 13.121094 45.605469 12.4375 44.902344 11.917969 C 44.539062 11.648438 44.148438 11.421875 43.738281 11.238281 C 43.523438 11.136719 43.296875 11.066406 43.078125 10.972656 C 42.582031 10.761719 40.640625 10.585938 39.582031 10.914062 Z M 39.582031 10.914062 "/>
</g>
</g>
<path style=" stroke:none;fill-rule:nonzero;fill:rgb(70.19608%,70.19608%,70.19608%);fill-opacity:1;" d="M 16.644531 37.503906 L 16.644531 17.71875 C 16.644531 16.988281 15.875 16.398438 14.929688 16.398438 L 11.148438 16.398438 C 10.199219 16.398438 9.429688 16.988281 9.429688 17.71875 L 9.429688 37.503906 C 7.558594 38.707031 6.316406 40.816406 6.316406 43.222656 C 6.316406 46.964844 9.324219 50 13.039062 50 C 16.75 50 19.761719 46.964844 19.761719 43.222656 C 19.761719 40.816406 18.515625 38.707031 16.644531 37.503906 Z M 16.644531 37.503906 "/>
<path style=" stroke:none;fill-rule:nonzero;fill:rgb(100%,100%,100%);fill-opacity:1;" d="M 16.921875 37.332031 L 16.921875 17.707031 C 16.921875 16.984375 16.152344 16.398438 15.203125 16.398438 L 11.425781 16.398438 C 10.476562 16.398438 9.707031 16.984375 9.707031 17.707031 L 9.707031 37.332031 C 7.835938 38.523438 6.59375 40.617188 6.59375 43 C 6.59375 46.714844 9.601562 49.722656 13.3125 49.722656 C 17.027344 49.722656 20.035156 46.714844 20.035156 43 C 20.035156 40.617188 18.792969 38.523438 16.921875 37.332031 Z M 16.921875 37.332031 "/>
<path style=" stroke:none;fill-rule:nonzero;fill:rgb(83.529413%,9.803922%,12.54902%);fill-opacity:1;" d="M 16.351562 38.222656 L 15.863281 37.910156 L 15.863281 27.128906 L 10.765625 27.128906 L 10.765625 37.910156 L 10.277344 38.222656 C 8.632812 39.269531 7.648438 41.058594 7.648438 43 C 7.648438 46.125 10.191406 48.667969 13.3125 48.667969 C 16.4375 48.667969 18.980469 46.125 18.980469 43 C 18.980469 41.058594 17.996094 39.269531 16.351562 38.222656 Z M 16.351562 38.222656 "/>
<path style="fill:none;stroke-width:6.2508;stroke-linecap:round;stroke-linejoin:miter;stroke:rgb(30.19608%,30.19608%,30.19608%);stroke-opacity:1;stroke-miterlimit:10;" d="M 133.16 195.96 L 166 195.96 " transform="matrix(0.0976562,0,0,0.0976562,0,0)"/>
<path style="fill:none;stroke-width:6.2508;stroke-linecap:round;stroke-linejoin:miter;stroke:rgb(30.19608%,30.19608%,30.19608%);stroke-opacity:1;stroke-miterlimit:10;" d="M 133.16 224.2 L 166 224.2 " transform="matrix(0.0976562,0,0,0.0976562,0,0)"/>
<path style="fill:none;stroke-width:6.2508;stroke-linecap:round;stroke-linejoin:miter;stroke:rgb(30.19608%,30.19608%,30.19608%);stroke-opacity:1;stroke-miterlimit:10;" d="M 133.16 252.48 L 166 252.48 " transform="matrix(0.0976562,0,0,0.0976562,0,0)"/>
<path style="fill:none;stroke-width:6.2508;stroke-linecap:round;stroke-linejoin:miter;stroke:rgb(30.19608%,30.19608%,30.19608%);stroke-opacity:1;stroke-miterlimit:10;" d="M 133.16 280.72 L 166 280.72 " transform="matrix(0.0976562,0,0,0.0976562,0,0)"/>
<path style="fill:none;stroke-width:6.2508;stroke-linecap:round;stroke-linejoin:miter;stroke:rgb(30.19608%,30.19608%,30.19608%);stroke-opacity:1;stroke-miterlimit:10;" d="M 133.16 309 L 166 309 " transform="matrix(0.0976562,0,0,0.0976562,0,0)"/>
<path style="fill:none;stroke-width:6.2508;stroke-linecap:round;stroke-linejoin:miter;stroke:rgb(30.19608%,30.19608%,30.19608%);stroke-opacity:1;stroke-miterlimit:10;" d="M 133.16 337.28 L 166 337.28 " transform="matrix(0.0976562,0,0,0.0976562,0,0)"/>
<path style="fill:none;stroke-width:6.2508;stroke-linecap:round;stroke-linejoin:miter;stroke:rgb(30.19608%,30.19608%,30.19608%);stroke-opacity:1;stroke-miterlimit:10;" d="M 133.16 365.52 L 166 365.52 " transform="matrix(0.0976562,0,0,0.0976562,0,0)"/>
<use xlink:href="#surface62" mask="url(#mask19)"/>
<use xlink:href="#surface65" mask="url(#mask20)"/>
</g>
</svg>
